<?xml version="1.0" encoding="UTF-8" standalone="no"?>
<svg
   xmlns:dc="http://purl.org/dc/elements/1.1/"
   xmlns:cc="http://creativecommons.org/ns#"
   xmlns:rdf="http://www.w3.org/1999/02/22-rdf-syntax-ns#"
   xmlns:svg="http://www.w3.org/2000/svg"
   xmlns="http://www.w3.org/2000/svg"
   xmlns:sodipodi="http://sodipodi.sourceforge.net/DTD/sodipodi-0.dtd"
   xmlns:inkscape="http://www.inkscape.org/namespaces/inkscape"
   width="210mm"
   height="297mm"
   viewBox="0 0 210 297"
   version="1.1"
   id="svg8"
   inkscape:version="1.0.2 (1.0.2+r75+1)"
   sodipodi:docname="logo.svg">
  <defs
     id="defs2">
    <rect
       x="374.68859"
       y="32.511096"
       width="213.60627"
       height="82.413023"
       id="rect912" />
    <rect
       x="390.37093"
       y="59.582198"
       width="199.61081"
       height="58.264675"
       id="rect906" />
    <rect
       x="374.6886"
       y="32.511097"
       width="213.60628"
       height="82.413025"
       id="rect912-5" />
    <rect
       x="374.6886"
       y="32.511097"
       width="213.60628"
       height="82.413025"
       id="rect927" />
    <rect
       x="374.6886"
       y="32.511097"
       width="213.60628"
       height="82.413025"
       id="rect912-5-3" />
    <rect
       x="374.6886"
       y="32.511097"
       width="213.60628"
       height="82.413025"
       id="rect984" />
    <rect
       x="374.6886"
       y="32.511097"
       width="213.60628"
       height="82.413025"
       id="rect912-5-3-5" />
    <rect
       x="374.6886"
       y="32.511097"
       width="213.60628"
       height="82.413025"
       id="rect968" />
  </defs>
  <sodipodi:namedview
     id="base"
     pagecolor="#ffffff"
     bordercolor="#666666"
     borderopacity="1.0"
     inkscape:pageopacity="0.0"
     inkscape:pageshadow="2"
     inkscape:zoom="0.50000001"
     inkscape:cx="1685.9236"
     inkscape:cy="151.5569"
     inkscape:document-units="mm"
     inkscape:current-layer="layer1"
     inkscape:document-rotation="0"
     showgrid="false"
     showguides="true"
     inkscape:guide-bbox="true"
     inkscape:window-width="1920"
     inkscape:window-height="1015"
     inkscape:window-x="0"
     inkscape:window-y="0"
     inkscape:window-maximized="1"
     inkscape:snap-global="true">
    <sodipodi:guide
       position="-135.51528,306.91245"
       orientation="0,-1"
       id="guide911" />
    <sodipodi:guide
       position="-135.63928,302.98685"
       orientation="0,-1"
       id="guide913" />
  </sodipodi:namedview>
  <metadata
     id="metadata5">
    <rdf:RDF>
      <cc:Work
         rdf:about="">
        <dc:format>image/svg+xml</dc:format>
        <dc:type
           rdf:resource="http://purl.org/dc/dcmitype/StillImage" />
        <dc:title />
      </cc:Work>
    </rdf:RDF>
  </metadata>
  <g
     inkscape:label="Livello 1"
     inkscape:groupmode="layer"
     id="layer1">
    <rect
       style="opacity:0.002;fill:#ffffff;fill-opacity:0.00950492;stroke:none;stroke-width:0.765;stroke-linecap:round;stroke-linejoin:bevel;stroke-dasharray:0.765, 0.76500000000000001;stroke-opacity:0.436997;paint-order:markers fill stroke"
       id="banner800x212"
       width="407.75806"
       height="108.19959"
       x="211.84702"
       y="25.259439"
       inkscape:export-xdpi="49.830002"
       inkscape:export-ydpi="49.830002" />
    <path
       id="rect841"
       style="fill:#fce762;fill-opacity:1;stroke-width:2.89134;stroke-linecap:round;stroke-linejoin:bevel;stroke-dasharray:2.89134, 2.89134;stroke-opacity:0.436997;paint-order:markers fill stroke"
       d="M 800.68164,95.46875 V 504.41211 H 1463.9883 L 1860.4004,95.46875 Z"
       transform="scale(0.26458333)"
       sodipodi:nodetypes="ccccc" />
    <rect
       style="opacity:0.61706;fill:#2176ff;fill-opacity:1;stroke-width:1.30408;stroke-linecap:round;stroke-linejoin:bevel;stroke-dasharray:1.30408, 1.30408;stroke-opacity:0.436997;paint-order:markers fill stroke"
       id="rect865-2"
       width="477.07727"
       height="140.8494"
       x="-32.807228"
       y="371.01416"
       transform="rotate(-45.891495)"
       ry="0" />
    <path
       id="path833"
       style="fill:#800000;fill-opacity:1;stroke:none;stroke-width:0.685672;stroke-linecap:round;stroke-linejoin:bevel;stroke-dasharray:0.685672, 0.685672;stroke-opacity:0.436997;paint-order:markers fill stroke"
       d="M 64.350741,51.833172 C 58.030327,46.997987 49.757938,44.79474 41.86973,45.844833 33.981503,46.894946 26.573619,51.185596 21.73825,57.50586 c -0.03218,0.04252 -0.06247,0.08629 -0.09415,0.12917 -2.177085,-1.687436 -4.101464,-3.18387 -4.216846,-3.280265 -0.210279,-0.175762 -0.222061,-0.177778 -0.319301,-0.05067 -0.161632,0.210569 -0.428464,0.925865 -0.686704,1.838264 -0.920925,3.253863 -2.080518,9.928718 -3.373313,19.417291 l -0.403838,2.960336 6.680981,-8.707763 c 3.321094,-4.329311 5.972939,-7.806961 6.472648,-8.485754 l 0.395148,-0.516478 0.01361,0.01039 c 3.951464,-5.128054 9.979252,-8.608279 16.396829,-9.462607 6.444694,-0.857934 13.203189,0.94222 18.366975,4.892576 0.07249,0.05541 0.143266,0.113122 0.215159,0.169272 l -8.27e-4,0.0011 c 0.01347,0.0101 0.0272,0.01984 0.04066,0.02995 a 5.6782161,5.6782161 0 0 1 0.02023,0.01548 c 0.05228,0.03964 0.105108,0.08013 0.157061,0.120202 5.163671,3.950499 8.669221,10.002689 9.527153,16.447379 0.219071,1.645621 0.263793,3.31145 0.144694,4.966221 l 5.199479,-6.796405 c -1.285892,-7.475038 -5.465313,-14.425128 -11.49206,-19.035927 -0.0636,-0.04903 -0.127641,-0.09815 -0.191676,-0.146605 a 6.950061,6.950061 0 0 0 -0.02502,-0.01915 c -0.07171,-0.05596 -0.14217,-0.113429 -0.214422,-0.168709 z m 15.198221,21.932462 -6.680975,8.707768 c -3.321326,4.329136 -5.972954,7.806957 -6.47265,8.485754 l -0.395134,0.516488 -0.01362,-0.0104 c -3.951457,5.128047 -9.979248,8.608256 -16.396828,9.462596 -6.44469,0.85793 -13.203189,-0.942216 -18.366973,-4.892571 -0.07248,-0.0554 -0.143369,-0.112973 -0.215163,-0.169262 l 8.3e-4,-8.37e-4 c -0.01345,-0.01046 -0.02724,-0.01989 -0.04066,-0.02999 a 5.6782161,5.6782161 0 0 1 -0.02024,-0.01543 C 30.895309,95.78003 30.84244,95.73962 30.79049,95.699548 25.626822,91.74906 22.121276,85.696876 21.263341,79.252181 c -0.21907,-1.64562 -0.263784,-3.31145 -0.144694,-4.966217 l -5.199479,6.7964 c 1.285885,7.474997 5.465306,14.425073 11.492054,19.035866 0.06366,0.0489 0.127594,0.0982 0.191675,0.14661 a 6.950061,6.950061 0 0 0 0.02503,0.0191 c 0.07172,0.0559 0.142164,0.11342 0.214422,0.16871 6.320413,4.83518 14.592796,7.03843 22.481007,5.98834 7.888218,-1.05012 15.29611,-5.34076 20.131481,-11.661027 0.03236,-0.04232 0.06236,-0.08637 0.09452,-0.128881 2.177084,1.687433 4.101466,3.183873 4.216848,3.280261 0.210285,0.175756 0.22226,0.177513 0.319302,0.05064 0.161269,-0.210829 0.428466,-0.925869 0.686699,-1.838265 0.920935,-3.253866 2.080524,-9.928724 3.373314,-19.417292 z" />
    <path
       style="fill:#800000;fill-opacity:1;stroke:none;stroke-width:0.193192;stroke-linecap:round;stroke-linejoin:bevel;stroke-dasharray:0.193192, 0.193192;stroke-opacity:0.436997;paint-order:markers fill stroke"
       d="m 120.97881,39.8386 -1.85419,-0.01886 0.002,-9.470308 0.002,-9.470306 0.50217,0.768401 c 2.73613,4.186634 4.59669,9.28621 5.23983,14.361702 0.13017,1.027234 0.2685,2.84462 0.2685,3.52751 v 0.351932 l -1.15261,-0.01561 c -0.63392,-0.0086 -1.98698,-0.0241 -3.00678,-0.03447 z"
       id="path861" />
    <path
       id="path909"
       style="fill:#800000;stroke-width:0.0869095"
       d="m 51.826677,61.699721 c -1.950036,-8.43e-4 -3.342991,0.03371 -3.538992,0.08828 -0.43319,0.120241 -0.787492,0.432856 -1.214781,1.072353 -0.195327,0.29234 -0.454453,0.638954 -0.576198,0.77042 l -0.221295,0.238952 -6.654226,0.0012 c -3.659715,4.31e-4 -6.86072,0.02551 -7.113295,0.05591 -0.644628,0.07739 -1.291493,0.485198 -1.62324,1.022911 l -0.263673,0.427293 -0.02413,5.103373 -0.02354,5.103377 -0.389625,0.05827 c -0.729746,0.109417 -1.390301,0.814568 -1.489638,1.589692 -0.02664,0.20776 0.289113,2.07367 0.868712,5.128684 1.017542,5.363367 1.022041,5.37618 1.777443,5.82024 l 0.410221,0.241308 8.365159,0.02354 8.365156,0.02413 8.745367,-0.01825 h 2.477234 c 2.383494,0 1.977726,-5.28e-4 3.992182,-11.596922 0.973278,-5.225236 1.003785,-5.549105 0.584436,-6.182789 -0.137309,-0.207486 -0.298349,-0.365461 -0.504981,-0.484382 v -0.0041 h -0.0088 c -0.33185,-0.188206 -0.781403,-0.277282 -1.445529,-0.30255 l -0.890487,-0.03355 v -2.122336 c 0,-2.271006 -0.02717,-2.446028 -0.470257,-3.026947 -0.112274,-0.147223 -0.414254,-0.382426 -0.670954,-0.522637 -0.460296,-0.251424 -0.489237,-0.254992 -2.09232,-0.290158 -1.86374,-0.04092 -1.810987,-0.01922 -1.966956,-0.82516 -0.121735,-0.629115 -0.37077,-0.988088 -0.831041,-1.197122 -0.326648,-0.14835 -0.623381,-0.161712 -3.571952,-0.163032 z m -3.250012,1.298946 3.188213,0.02295 3.188212,0.02237 0.05709,0.397863 c 0.07923,0.55395 0.352774,1.049255 0.78337,1.417834 l 0.366671,0.313702 h 1.639721 c 2.479178,0 2.413669,-0.07528 2.413669,2.778576 v 1.914576 h -0.565014 -0.565015 -6.477654 c -5.732797,0 -5.620921,-0.0087 -6.047422,0.497918 -0.120596,0.143369 -0.951837,1.341182 -1.847479,2.662041 -0.89564,1.32086 -1.701821,2.440987 -1.791567,2.489008 -0.102938,0.05515 -1.737409,0.08711 -4.427712,0.08711 h -4.264095 -1.216547 -0.608568 -0.607979 v -4.714927 c 3.28e-4,-3.041228 0.03321,-4.831983 0.0924,-5.04511 0.06166,-0.222034 0.182224,-0.386132 0.368435,-0.499683 0.268446,-0.163683 0.498065,-0.169194 7.325767,-0.169505 h 7.048557 L 46.9752,64.923253 c 0.189974,-0.137586 0.529438,-0.499428 0.754531,-0.803969 0.22509,-0.304529 0.507573,-0.681576 0.627989,-0.837517 z" />
    <rect
       style="fill:#2176ff;fill-opacity:1;stroke-width:1.30408;stroke-linecap:round;stroke-linejoin:bevel;stroke-dasharray:1.30408, 1.30407999999999991;stroke-opacity:0.436997;paint-order:markers fill stroke;opacity:0.61705989"
       id="rect865"
       width="436.24255"
       height="39.585316"
       x="199.91605"
       y="73.615532" />
    <path
       style="fill:#fce762;fill-opacity:1;stroke:none;stroke-width:0.264583px;stroke-linecap:butt;stroke-linejoin:miter;stroke-opacity:1"
       d="m 239.31951,104.18549 c 5.87688,4.37453 49.3645,1.44739 72.89342,2.18871 5.62594,-1.60666 11.44607,-3.03893 14.71219,-7.866383 4.74943,-13.015843 -6.40664,-19.489475 -11.00987,-20.384047 l -0.23606,-5.340328 -7.48848,-12.060478 C 297.65826,53.528207 293.89592,56.90668 288.39797,57.574576 l -7.73985,8.677526 c -8.56933,-4.659217 -15.93342,-7.109434 -19.52432,-1.873149 -6.16145,0.522012 -8.34678,15.098676 -9.93258,13.699602 -16.50735,-0.676144 -20.98452,16.717553 -11.88171,26.106935 z"
       id="path887"
       sodipodi:nodetypes="ccccccccccc" />
    <g
       id="g874"
       transform="translate(-11.641668)">
      <path
         id="path977-3"
         style="fill:#fce762;fill-opacity:1;stroke:none;stroke-width:0.240353"
         d="m 307.70312,52.652344 c -5.7487,0.150994 -11.71029,2.18925 -15.60351,6.570312 -0.59207,0.696785 -1.14231,1.433513 -1.5918,2.230469 -2.85598,-1.585506 -5.93327,-3.143404 -9.28798,-3.071891 -6.70735,-0.317063 -13.5569,3.098783 -17.01659,8.915494 -1.6851,2.730665 -2.665,5.883208 -2.89269,9.080225 -3.90876,0.0276 -7.75114,1.578914 -10.75518,4.04444 -1.97047,1.671652 -3.54236,3.780881 -4.71748,6.074701 -0.82391,-0.350213 -1.70882,-0.953284 -2.61914,-0.800782 -1.29202,0.51426 -1.36203,2.090724 -1.32031,3.275391 0.10337,6.245201 1.02224,12.433357 1.58594,18.634767 2.80481,-6.23979 5.414,-12.568454 8.32256,-18.760306 1.6639,-3.088112 4.73658,-5.559509 8.31203,-5.854577 2.64442,-0.36403 5.32204,-0.201484 7.98259,-0.240587 -0.0448,-3.269881 -0.73402,-6.564757 0.22461,-9.773438 1.80994,-5.700015 8.25161,-9.198015 14.04741,-8.146319 3.20517,0.527679 5.89502,2.572819 8.08165,4.87232 0.67886,0.658409 1.34624,1.328532 2.02133,1.990796 1.41987,-3.984284 3.68799,-7.990057 7.3646,-10.353687 4.63973,-3.036586 10.92176,-3.058986 15.71059,-0.341304 5.19441,2.797696 8.52521,8.865505 7.70531,14.763798 -0.2715,2.379685 -1.0487,4.679172 -1.7805,6.99174 3.34807,-0.133696 6.98902,0.06739 9.76202,2.174725 2.00138,1.423765 3.15783,3.711954 3.87665,5.999103 0.47619,0.964598 2.00343,0.601548 2.19141,-0.390625 0.69766,-1.708302 1.48137,-3.37889 2.21289,-5.072265 -2.02693,-3.957781 -5.66578,-7.108438 -9.95508,-8.34961 1.21833,-7.519687 -2.29083,-15.391138 -8.28457,-19.970075 -3.82287,-3.005397 -8.70607,-4.672025 -13.57676,-4.492815 z m 33.52149,29.193359 c -2.51001,5.583141 -4.82593,11.25658 -7.47315,16.775516 -1.63582,2.848971 -4.7925,4.560391 -8.00508,4.899011 -4.70876,0.69466 -9.50711,-0.0783 -14.27411,0.089 -12.93326,0.0173 -25.86799,-0.0558 -38.80026,0.0643 -4.86825,0.15581 -9.89996,0.8906 -14.63526,-0.62465 -3.23905,-1.16639 -5.70252,-4.028887 -6.62322,-7.316526 -0.38334,-1.070929 -0.76671,-2.141848 -1.14986,-3.212843 -1.22112,2.771301 -2.4728,5.164386 -3.69443,7.935459 2.56678,5.10589 7.91009,9.23449 13.6829,9.44926 6.14695,0.51436 12.31135,-0.14639 18.467,0.006 15.70829,-0.0139 31.41781,0.0321 47.12533,-0.036 3.46731,-0.16772 6.83514,-1.46761 9.59882,-3.54779 1.13418,-0.71359 1.87767,-1.88485 2.74226,-2.88299 0.54181,-0.73834 1.00781,-1.52903 1.43945,-2.33594 0.82893,0.3548 1.73701,0.96999 2.66797,0.82422 1.33342,-0.52935 1.35931,-2.165401 1.32207,-3.375739 -0.11987,-6.217225 -1.02217,-12.37889 -1.57988,-18.553948 -0.27019,0.614583 -0.54037,1.229167 -0.81055,1.84375 z"
         sodipodi:nodetypes="ccccccccccccccccccccccccccccccccccccccccccccccccc" />
      <text
         xml:space="preserve"
         style="font-size:10.5833px;line-height:1.25;font-family:'Roboto Mono';-inkscape-font-specification:'Roboto Mono';white-space:pre;inline-size:0;fill:#800000;stroke-width:0.264583"
         x="30.679483"
         y="90.074318"
         id="text928"
         transform="matrix(1.9210933,0,0,1.9210933,203.68339,-80.793341)"><tspan
           id="tspan926"
           x="30.679483"
           y="90.074318"
           style="font-style:normal;font-variant:normal;font-weight:normal;font-stretch:normal;font-family:Kinnari;-inkscape-font-specification:Kinnari;fill:#800000;stroke-width:0.264583">.<tspan
   style="font-style:normal;font-variant:normal;font-weight:normal;font-stretch:normal;font-family:'Nexa Bold';-inkscape-font-specification:'Nexa Bold, '"
   id="tspan954">gsync</tspan></tspan></text>
      <path
         id="path977"
         style="fill:#800000;stroke:none;stroke-width:0.908421"
         d="m 1165.0645,204.98242 c -26.0772,-0.0662 -54.5151,11.8252 -64.5059,35.45899 -10.8675,-5.38306 -20.1462,-12.21582 -32.7031,-13.47266 -41.741,-4.17612 -74.49027,26.33987 -74.49027,67.97656 -3.58703,-5e-5 -10.75936,-2.10051 -26.88671,4.20703 -16.12751,6.30762 -27.32162,19.42326 -34.26563,35.28711 -0.0461,0.10651 -0.0859,0.21519 -0.13086,0.32227 -5.47578,-2.43808 -10.31946,-4.60412 -10.61328,-4.74805 -0.53545,-0.26249 -0.56156,-0.26043 -0.70117,0.0586 -0.23244,0.52879 -0.4251,2.17999 -0.49805,4.24218 -0.26003,7.3543 0.74827,22.06112 2.93359,42.78516 l 0.68165,6.4668 9.60742,-21.86719 c 4.77535,-10.87117 8.57686,-19.59545 9.28125,-21.28906 l 0.5664,-1.29493 0.0332,0.0137 c 5.65077,-12.78889 14.39383,-23.4254 27.35156,-28.60157 0.004,-0.002 0.008,-0.002 0.0156,-0.004 11.21156,-4.21943 23.50293,-3.76758 36.252,-3.76758 -0.584,-13.60274 -2.5505,-25.18018 3.5332,-38.1543 11.4579,-24.43811 41.1165,-36.24577 66.416,-27.16992 10.5613,3.78854 18.5578,11.20871 26.3438,18.99414 6.8439,-16.43911 18.0317,-30.38195 34.5195,-37.86914 35.7408,-16.22976 78.8365,4.29196 88.5898,42.41211 3.6419,14.23507 1.2622,28.0707 -3.1992,41.78711 13.0797,0 25.4183,2.95691 35.416,11.97656 5.626,5.07578 9.5759,11.41707 11.8887,18.2832 l 6.0117,-13.63671 c -7.5038,-13.32756 -20.2877,-23.89358 -37.8711,-27.53321 8.7804,-36.79699 -14.3558,-74.19795 -49.0566,-86.80468 -7.3973,-2.68731 -15.8272,-4.03651 -24.5195,-4.0586 z m 124.0195,120.59375 -9.6074,21.86719 c -2.4535,5.5845 -4.6027,10.49374 -6.2539,14.2832 l -3.9864,9.04102 c -0.4797,1.03043 -0.9889,2.04624 -1.5312,3.04492 l -0.045,-0.0195 c -1.9178,3.66625 -4.3441,7.0956 -7.3008,10.14258 -18.7973,19.36921 -49.9741,13.66211 -74.4082,13.66211 h -146.2559 c -20.8375,0 -48.55255,4.77024 -68.13085,-3.13672 -13.03876,-5.26613 -22.1732,-16.15252 -26.25781,-28.5918 l -6.55859,14.87305 c 8.52877,15.14929 23.57461,26.58666 42.80859,28.50976 19.59276,1.95118 40.25886,0.14649 59.95506,0.14649 h 118.0957 52.6875 c 12.0955,0 23.8735,0.85032 35.4278,-3.35742 7.9573,-2.89805 14.5529,-7.09403 19.8632,-12.16211 v 0.29492 c 0.096,-0.0987 0.1958,-0.19357 0.2911,-0.29297 l -0.1817,-0.10547 c 4.8568,-4.66187 8.6206,-10.05906 11.3281,-15.88867 0.6279,-1.03585 1.2462,-2.0771 1.7305,-3.1836 0.047,-0.1062 0.087,-0.2159 0.1328,-0.32226 5.4758,2.43805 10.3176,4.60412 10.6113,4.74805 0.5356,0.26267 0.5619,0.26002 0.7012,-0.0586 0.2317,-0.52917 0.4271,-2.17807 0.5,-4.24023 0.2601,-7.35432 -0.7483,-22.06308 -2.9336,-42.78711 z"
         transform="scale(0.26458333)" />
      <text
         xml:space="preserve"
         style="font-size:10.5833px;line-height:1.25;font-family:'Roboto Mono';-inkscape-font-specification:'Roboto Mono';white-space:pre;inline-size:0;fill:#800000;stroke-width:0.264583"
         x="30.679483"
         y="90.074318"
         id="text928-3"
         transform="matrix(1.9210933,0,0,1.9210933,324.09669,-123.93382)"><tspan
           id="tspan926-6"
           x="30.679483"
           y="90.074318"
           style="font-style:normal;font-variant:normal;font-weight:normal;font-stretch:normal;font-family:Kinnari;-inkscape-font-specification:Kinnari;fill:#800000;stroke-width:0.264583" /></text>
      <text
         xml:space="preserve"
         id="text904"
         style="font-style:normal;font-variant:normal;font-weight:normal;font-stretch:normal;font-size:10.5833px;line-height:1.25;font-family:'Nexa Bold';-inkscape-font-specification:'Nexa Bold, ';white-space:pre;shape-inside:url(#rect906);" />
    </g>
    <path
       style="fill:#000000;stroke-width:0.264583"
       id="path975"
       d="" />
    <g
       id="g1142">
      <rect
         fill="#2176ff"
         x="218.22894"
         y="161.08086"
         width="26.458332"
         height="58.208332"
         id="rect2"
         style="stroke-width:0.264583" />
      <rect
         fill="#413c58"
         x="244.68727"
         y="161.08086"
         width="26.458332"
         height="58.208332"
         id="rect4"
         style="stroke-width:0.264583" />
      <rect
         fill="#800000"
         x="271.1456"
         y="161.08086"
         width="26.458332"
         height="58.208332"
         id="rect6"
         style="stroke-width:0.264583" />
      <rect
         fill="#f7b538"
         x="297.60394"
         y="161.08086"
         width="26.458332"
         height="58.208332"
         id="rect8"
         style="stroke-width:0.264583;fill:#fce762;fill-opacity:1" />
      <rect
         fill="#483d03"
         x="324.06229"
         y="161.08086"
         width="26.458332"
         height="58.208332"
         id="rect10"
         style="stroke-width:0.264583" />
      <text
         x="220.87477"
         y="223.25795"
         font-family="Arial"
         font-size="1.5875px"
         alignment-baseline="middle"
         id="text12"
         style="stroke-width:0.264583">Exported from Coolors.co</text>
      <text
         x="347.87479"
         y="223.25795"
         font-family="Arial"
         font-size="1.5875px"
         alignment-baseline="middle"
         text-anchor="end"
         id="text14"
         style="stroke-width:0.264583">https://coolors.co/2176ff-413c58-800000-f7b538-483d03</text>
    </g>
    <g
       id="g895"
       transform="translate(-11.112501)">
      <rect
         fill="#483d03"
         x="-95.562096"
         y="373.50455"
         width="31.160194"
         height="285.10321"
         id="rect10-3"
         style="fill:#ffffff;stroke-width:0.635462"
         transform="rotate(-90)" />
    </g>
    <g
       id="g1072"
       transform="matrix(0.94848606,0,0,0.94848606,26.054492,4.5464082)"
       style="fill:#483d03;fill-opacity:1">
      <text
         xml:space="preserve"
         id="text910"
         style="font-style:normal;font-variant:normal;font-weight:normal;font-stretch:normal;font-size:10.5833px;line-height:1.25;font-family:'Mitra Mono';-inkscape-font-specification:'Mitra Mono';white-space:pre;shape-inside:url(#rect912-5-3);fill:#483d03;fill-opacity:1;"
         transform="matrix(2.037923,0,0,2.037923,-590.40115,-0.60811767)"
         x="145.84799"
         y="0"><tspan
           x="467.65619"
           y="42.102834"><tspan
             style="font-style:normal;font-variant:normal;font-weight:normal;font-stretch:normal;font-family:Laksaman;-inkscape-font-specification:Laksaman;text-align:end;text-anchor:end;fill:#483d03;fill-opacity:1">shell bi   directional sync </tspan></tspan></text>
      <g
         aria-label="&lt;-"
         transform="matrix(2.037923,0,0,2.037923,-743.90457,0.61000751)"
         id="text910-6"
         style="font-style:normal;font-variant:normal;font-weight:normal;font-stretch:normal;font-size:10.5833px;line-height:1.25;font-family:'Mitra Mono';-inkscape-font-specification:'Mitra Mono';white-space:pre;shape-inside:url(#rect912-5-3-5);fill:#483d03;fill-opacity:1">
        <path
           id="path1004"
           style="font-style:normal;font-variant:normal;font-weight:normal;font-stretch:normal;font-family:Laksaman;-inkscape-font-specification:Laksaman;text-align:end;text-anchor:end;fill:#483d03;fill-opacity:1;stroke-width:7.70239"
           d="m 1639.7031,285.10352 -22.584,12.33984 v 3.26172 l 22.584,12.33984 v -4.43945 l -17.6914,-9.44922 17.6914,-9.57422 z"
           transform="matrix(0.1298299,0,0,0.1298299,369.07347,0.18644545)" />
        <path
           d="m 583.90785,39.278286 h -3.04151 v -0.529165 h 3.04151 z"
           style="font-style:normal;font-variant:normal;font-weight:normal;font-stretch:normal;font-family:Laksaman;-inkscape-font-specification:Laksaman;text-align:end;text-anchor:end;fill:#483d03;fill-opacity:1;stroke-width:1.04534"
           id="path1006" />
        <path
           id="path1004-9"
           style="font-style:normal;font-variant:normal;font-weight:normal;font-stretch:normal;font-size:10.5833px;line-height:1.25;font-family:Laksaman;-inkscape-font-specification:Laksaman;text-align:end;text-anchor:end;white-space:pre;shape-inside:url(#rect912-5-3-5);fill:#483d03;fill-opacity:1;stroke-width:1"
           d="m 584.5997,37.198367 2.93208,1.60208 v 0.423469 l -2.93208,1.60208 v -0.576373 l 2.29687,-1.226792 -2.29687,-1.24302 z" />
        <path
           d="m 582.64781,39.275246 h 3.04151 v -0.529165 h -3.04151 z"
           style="font-style:normal;font-variant:normal;font-weight:normal;font-stretch:normal;font-size:10.5833px;line-height:1.25;font-family:Laksaman;-inkscape-font-specification:Laksaman;text-align:end;text-anchor:end;white-space:pre;shape-inside:url(#rect912-5-3-5);fill:#483d03;fill-opacity:1;stroke-width:1.04534"
           id="path1006-1" />
      </g>
    </g>
    <g
       aria-label="&lt;-"
       transform="matrix(8.2971222,0,0,8.2971222,-4269.7161,-331.39342)"
       id="text910-6-7"
       style="font-style:normal;font-variant:normal;font-weight:normal;font-stretch:normal;font-size:10.5833px;line-height:1.25;font-family:'Mitra Mono';-inkscape-font-specification:'Mitra Mono';white-space:pre;shape-inside:url(#rect912-5-3-5);opacity:0.808932;fill:#ffffff;fill-opacity:1">
      <path
         id="path1004-0"
         style="font-style:normal;font-variant:normal;font-weight:normal;font-stretch:normal;font-family:Laksaman;-inkscape-font-specification:Laksaman;text-align:end;text-anchor:end;fill:#ffffff;fill-opacity:1;stroke-width:7.70239"
         d="m 1639.7031,285.10352 -22.584,12.33984 v 3.26172 l 22.584,12.33984 v -4.43945 l -17.6914,-9.44922 17.6914,-9.57422 z"
         transform="matrix(0.1298299,0,0,0.1298299,369.07347,0.18644545)" />
      <path
         d="m 583.90785,39.278286 h -3.04151 v -0.529165 h 3.04151 z"
         style="font-style:normal;font-variant:normal;font-weight:normal;font-stretch:normal;font-family:Laksaman;-inkscape-font-specification:Laksaman;text-align:end;text-anchor:end;fill:#ffffff;fill-opacity:1;stroke-width:1.04534"
         id="path1006-9" />
      <path
         id="path1004-9-3"
         style="font-style:normal;font-variant:normal;font-weight:normal;font-stretch:normal;font-size:10.5833px;line-height:1.25;font-family:Laksaman;-inkscape-font-specification:Laksaman;text-align:end;text-anchor:end;white-space:pre;shape-inside:url(#rect912-5-3-5);fill:#ffffff;fill-opacity:1;stroke-width:1"
         d="m 584.5997,37.198367 2.93208,1.60208 v 0.423469 l -2.93208,1.60208 v -0.576373 l 2.29687,-1.226792 -2.29687,-1.24302 z" />
      <path
         d="m 582.64781,39.275246 h 3.04151 v -0.529165 h -3.04151 z"
         style="font-style:normal;font-variant:normal;font-weight:normal;font-stretch:normal;font-size:10.5833px;line-height:1.25;font-family:Laksaman;-inkscape-font-specification:Laksaman;text-align:end;text-anchor:end;white-space:pre;shape-inside:url(#rect912-5-3-5);fill:#ffffff;fill-opacity:1;stroke-width:1.04534"
         id="path1006-1-6" />
    </g>
  </g>
</svg>
