<?xml version="1.0" encoding="UTF-8" standalone="no"?>
<svg
   xmlns:dc="http://purl.org/dc/elements/1.1/"
   xmlns:cc="http://creativecommons.org/ns#"
   xmlns:rdf="http://www.w3.org/1999/02/22-rdf-syntax-ns#"
   xmlns:svg="http://www.w3.org/2000/svg"
   xmlns="http://www.w3.org/2000/svg"
   xmlns:sodipodi="http://sodipodi.sourceforge.net/DTD/sodipodi-0.dtd"
   xmlns:inkscape="http://www.inkscape.org/namespaces/inkscape"
   width="210mm"
   height="297mm"
   viewBox="0 0 210 297"
   version="1.1"
   id="svg8"
   inkscape:version="1.0.2 (1.0.2+r75+1)"
   sodipodi:docname="logo.svg">
  <defs
     id="defs2">
    <rect
       x="374.68859"
       y="32.511096"
       width="213.60627"
       height="82.413023"
       id="rect912" />
    <rect
       x="390.37093"
       y="59.582198"
       width="199.61081"
       height="58.264675"
       id="rect906" />
  </defs>
  <sodipodi:namedview
     id="base"
     pagecolor="#ffffff"
     bordercolor="#666666"
     borderopacity="1.0"
     inkscape:pageopacity="0.0"
     inkscape:pageshadow="2"
     inkscape:zoom="0.3535534"
     inkscape:cx="1139.9141"
     inkscape:cy="-528.53241"
     inkscape:document-units="mm"
     inkscape:current-layer="g874"
     inkscape:document-rotation="0"
     showgrid="false"
     showguides="true"
     inkscape:guide-bbox="true"
     inkscape:window-width="1585"
     inkscape:window-height="1016"
     inkscape:window-x="0"
     inkscape:window-y="0"
     inkscape:window-maximized="0">
    <sodipodi:guide
       position="-135.51528,306.91245"
       orientation="0,-1"
       id="guide911" />
    <sodipodi:guide
       position="-135.63928,302.98685"
       orientation="0,-1"
       id="guide913" />
  </sodipodi:namedview>
  <metadata
     id="metadata5">
    <rdf:RDF>
      <cc:Work
         rdf:about="">
        <dc:format>image/svg+xml</dc:format>
        <dc:type
           rdf:resource="http://purl.org/dc/dcmitype/StillImage" />
        <dc:title />
      </cc:Work>
    </rdf:RDF>
  </metadata>
  <g
     inkscape:label="Livello 1"
     inkscape:groupmode="layer"
     id="layer1">
    <rect
       style="fill:#fce762;stroke-width:0.765;stroke-linecap:round;stroke-linejoin:bevel;stroke-dasharray:0.765, 0.76500000000000001;stroke-opacity:0.436997;paint-order:markers fill stroke;fill-opacity:1"
       id="rect841"
       width="407.75781"
       height="108.19927"
       x="211.84705"
       y="25.259602" />
    <path
       id="path833"
       style="fill:#800000;fill-opacity:1;stroke:none;stroke-width:0.685672;stroke-linecap:round;stroke-linejoin:bevel;stroke-dasharray:0.685672, 0.685672;stroke-opacity:0.436997;paint-order:markers fill stroke"
       d="M 64.350741,51.833172 C 58.030327,46.997987 49.757938,44.79474 41.86973,45.844833 33.981503,46.894946 26.573619,51.185596 21.73825,57.50586 c -0.03218,0.04252 -0.06247,0.08629 -0.09415,0.12917 -2.177085,-1.687436 -4.101464,-3.18387 -4.216846,-3.280265 -0.210279,-0.175762 -0.222061,-0.177778 -0.319301,-0.05067 -0.161632,0.210569 -0.428464,0.925865 -0.686704,1.838264 -0.920925,3.253863 -2.080518,9.928718 -3.373313,19.417291 l -0.403838,2.960336 6.680981,-8.707763 c 3.321094,-4.329311 5.972939,-7.806961 6.472648,-8.485754 l 0.395148,-0.516478 0.01361,0.01039 c 3.951464,-5.128054 9.979252,-8.608279 16.396829,-9.462607 6.444694,-0.857934 13.203189,0.94222 18.366975,4.892576 0.07249,0.05541 0.143266,0.113122 0.215159,0.169272 l -8.27e-4,0.0011 c 0.01347,0.0101 0.0272,0.01984 0.04066,0.02995 a 5.6782161,5.6782161 0 0 1 0.02023,0.01548 c 0.05228,0.03964 0.105108,0.08013 0.157061,0.120202 5.163671,3.950499 8.669221,10.002689 9.527153,16.447379 0.219071,1.645621 0.263793,3.31145 0.144694,4.966221 l 5.199479,-6.796405 c -1.285892,-7.475038 -5.465313,-14.425128 -11.49206,-19.035927 -0.0636,-0.04903 -0.127641,-0.09815 -0.191676,-0.146605 a 6.950061,6.950061 0 0 0 -0.02502,-0.01915 c -0.07171,-0.05596 -0.14217,-0.113429 -0.214422,-0.168709 z m 15.198221,21.932462 -6.680975,8.707768 c -3.321326,4.329136 -5.972954,7.806957 -6.47265,8.485754 l -0.395134,0.516488 -0.01362,-0.0104 c -3.951457,5.128047 -9.979248,8.608256 -16.396828,9.462596 -6.44469,0.85793 -13.203189,-0.942216 -18.366973,-4.892571 -0.07248,-0.0554 -0.143369,-0.112973 -0.215163,-0.169262 l 8.3e-4,-8.37e-4 c -0.01345,-0.01046 -0.02724,-0.01989 -0.04066,-0.02999 a 5.6782161,5.6782161 0 0 1 -0.02024,-0.01543 C 30.895309,95.78003 30.84244,95.73962 30.79049,95.699548 25.626822,91.74906 22.121276,85.696876 21.263341,79.252181 c -0.21907,-1.64562 -0.263784,-3.31145 -0.144694,-4.966217 l -5.199479,6.7964 c 1.285885,7.474997 5.465306,14.425073 11.492054,19.035866 0.06366,0.0489 0.127594,0.0982 0.191675,0.14661 a 6.950061,6.950061 0 0 0 0.02503,0.0191 c 0.07172,0.0559 0.142164,0.11342 0.214422,0.16871 6.320413,4.83518 14.592796,7.03843 22.481007,5.98834 7.888218,-1.05012 15.29611,-5.34076 20.131481,-11.661027 0.03236,-0.04232 0.06236,-0.08637 0.09452,-0.128881 2.177084,1.687433 4.101466,3.183873 4.216848,3.280261 0.210285,0.175756 0.22226,0.177513 0.319302,0.05064 0.161269,-0.210829 0.428466,-0.925869 0.686699,-1.838265 0.920935,-3.253866 2.080524,-9.928724 3.373314,-19.417292 z" />
    <path
       style="fill:#800000;fill-opacity:1;stroke:none;stroke-width:0.193192;stroke-linecap:round;stroke-linejoin:bevel;stroke-dasharray:0.193192, 0.193192;stroke-opacity:0.436997;paint-order:markers fill stroke"
       d="m 120.97881,39.8386 -1.85419,-0.01886 0.002,-9.470308 0.002,-9.470306 0.50217,0.768401 c 2.73613,4.186634 4.59669,9.28621 5.23983,14.361702 0.13017,1.027234 0.2685,2.84462 0.2685,3.52751 v 0.351932 l -1.15261,-0.01561 c -0.63392,-0.0086 -1.98698,-0.0241 -3.00678,-0.03447 z"
       id="path861" />
    <path
       id="path909"
       style="fill:#800000;stroke-width:0.0869095"
       d="m 51.826677,61.699721 c -1.950036,-8.43e-4 -3.342991,0.03371 -3.538992,0.08828 -0.43319,0.120241 -0.787492,0.432856 -1.214781,1.072353 -0.195327,0.29234 -0.454453,0.638954 -0.576198,0.77042 l -0.221295,0.238952 -6.654226,0.0012 c -3.659715,4.31e-4 -6.86072,0.02551 -7.113295,0.05591 -0.644628,0.07739 -1.291493,0.485198 -1.62324,1.022911 l -0.263673,0.427293 -0.02413,5.103373 -0.02354,5.103377 -0.389625,0.05827 c -0.729746,0.109417 -1.390301,0.814568 -1.489638,1.589692 -0.02664,0.20776 0.289113,2.07367 0.868712,5.128684 1.017542,5.363367 1.022041,5.37618 1.777443,5.82024 l 0.410221,0.241308 8.365159,0.02354 8.365156,0.02413 8.745367,-0.01825 h 2.477234 c 2.383494,0 1.977726,-5.28e-4 3.992182,-11.596922 0.973278,-5.225236 1.003785,-5.549105 0.584436,-6.182789 -0.137309,-0.207486 -0.298349,-0.365461 -0.504981,-0.484382 v -0.0041 h -0.0088 c -0.33185,-0.188206 -0.781403,-0.277282 -1.445529,-0.30255 l -0.890487,-0.03355 v -2.122336 c 0,-2.271006 -0.02717,-2.446028 -0.470257,-3.026947 -0.112274,-0.147223 -0.414254,-0.382426 -0.670954,-0.522637 -0.460296,-0.251424 -0.489237,-0.254992 -2.09232,-0.290158 -1.86374,-0.04092 -1.810987,-0.01922 -1.966956,-0.82516 -0.121735,-0.629115 -0.37077,-0.988088 -0.831041,-1.197122 -0.326648,-0.14835 -0.623381,-0.161712 -3.571952,-0.163032 z m -3.250012,1.298946 3.188213,0.02295 3.188212,0.02237 0.05709,0.397863 c 0.07923,0.55395 0.352774,1.049255 0.78337,1.417834 l 0.366671,0.313702 h 1.639721 c 2.479178,0 2.413669,-0.07528 2.413669,2.778576 v 1.914576 h -0.565014 -0.565015 -6.477654 c -5.732797,0 -5.620921,-0.0087 -6.047422,0.497918 -0.120596,0.143369 -0.951837,1.341182 -1.847479,2.662041 -0.89564,1.32086 -1.701821,2.440987 -1.791567,2.489008 -0.102938,0.05515 -1.737409,0.08711 -4.427712,0.08711 h -4.264095 -1.216547 -0.608568 -0.607979 v -4.714927 c 3.28e-4,-3.041228 0.03321,-4.831983 0.0924,-5.04511 0.06166,-0.222034 0.182224,-0.386132 0.368435,-0.499683 0.268446,-0.163683 0.498065,-0.169194 7.325767,-0.169505 h 7.048557 L 46.9752,64.923253 c 0.189974,-0.137586 0.529438,-0.499428 0.754531,-0.803969 0.22509,-0.304529 0.507573,-0.681576 0.627989,-0.837517 z" />
    <g
       id="g874">
      <text
         xml:space="preserve"
         style="font-size:10.5833px;line-height:1.25;font-family:'Roboto Mono';-inkscape-font-specification:'Roboto Mono';white-space:pre;inline-size:0;fill:#800000;stroke-width:0.264583"
         x="30.679483"
         y="90.074318"
         id="text928"
         transform="matrix(1.9210933,0,0,1.9210933,203.68339,-80.793341)"><tspan
           id="tspan926"
           x="30.679483"
           y="90.074318"
           style="font-style:normal;font-variant:normal;font-weight:normal;font-stretch:normal;font-family:Kinnari;-inkscape-font-specification:Kinnari;fill:#800000;stroke-width:0.264583">.<tspan
   style="font-style:normal;font-variant:normal;font-weight:normal;font-stretch:normal;font-family:'Nexa Bold';-inkscape-font-specification:'Nexa Bold, '"
   id="tspan954">gsync</tspan></tspan></text>
      <path
         id="path977"
         style="fill:#800000;stroke:none;stroke-width:0.240353"
         d="m 308.25651,54.234931 c -6.89959,-0.01753 -14.42378,3.128751 -17.06718,9.381858 -2.87535,-1.424268 -5.33034,-3.232102 -8.6527,-3.564641 -11.04397,-1.104932 -19.70888,6.96909 -19.70888,17.985464 -0.94907,-1.5e-5 -2.84674,-0.555762 -7.11377,1.11311 -4.26707,1.668889 -7.22885,5.139071 -9.06612,9.336381 -0.0122,0.02818 -0.0227,0.05694 -0.0346,0.08527 -1.4488,-0.645076 -2.73036,-1.218174 -2.8081,-1.256255 -0.14167,-0.06945 -0.14858,-0.06891 -0.18552,0.0155 -0.0615,0.139909 -0.11247,0.576789 -0.13177,1.122411 -0.0688,1.945825 0.19798,5.837004 0.77618,11.32024 l 0.18035,1.711011 2.54196,-5.785698 c 1.26348,-2.87633 2.2693,-5.184629 2.45567,-5.63273 l 0.14986,-0.342617 0.009,0.0036 c 1.4951,-3.383727 3.80837,-6.19797 7.23677,-7.567498 10e-4,-4.42e-4 0.002,-5.9e-4 0.004,-0.001 2.96639,-1.116391 6.21848,-0.996839 9.59166,-0.996839 -0.15452,-3.599058 -0.67481,-6.662256 0.93483,-10.094992 3.03158,-6.465916 10.87873,-9.590026 17.57257,-7.188708 2.79434,1.002385 4.91007,2.965638 6.97011,5.025533 1.81079,-4.349514 4.77089,-8.038557 9.13329,-10.019543 9.45643,-4.294124 20.85884,1.135581 23.4394,11.221537 0.96358,3.766363 0.33395,7.42704 -0.84646,11.056173 3.46067,0 6.72526,0.782349 9.37049,3.168798 1.48853,1.342967 2.53362,3.020767 3.14554,4.837433 l 1.5906,-3.608049 c -1.98538,-3.526248 -5.36778,-6.321843 -10.02006,-7.284828 2.32314,-9.735871 -3.79831,-19.631541 -12.97957,-22.967072 -1.95719,-0.711017 -4.1876,-1.067993 -6.48745,-1.073838 z m 31.16037,35.703764 -3.96152,8.984464 -0.0537,-0.02377 c -0.50741,0.970028 -1.14938,1.877381 -1.93167,2.683561 -4.97344,5.12477 -13.2223,3.61476 -19.68717,3.61476 h -38.69686 c -5.51325,0 -12.8462,1.26213 -18.02629,-0.82992 -3.44984,-1.39333 -5.86666,-4.27369 -6.94738,-7.564915 l -1.73529,3.935165 c 2.25657,4.00825 6.23745,7.03438 11.32644,7.5432 5.18392,0.51625 10.65181,0.0388 15.86311,0.0388 h 31.24616 13.94023 c 3.20026,0 6.31652,0.22499 9.37359,-0.88831 7.95375,-2.89674 10.81699,-10.656434 9.29039,-17.492995 z" />
      <text
         xml:space="preserve"
         style="font-size:10.5833px;line-height:1.25;font-family:'Roboto Mono';-inkscape-font-specification:'Roboto Mono';white-space:pre;inline-size:0;fill:#800000;stroke-width:0.264583"
         x="30.679483"
         y="90.074318"
         id="text928-3"
         transform="matrix(1.9210933,0,0,1.9210933,324.09669,-123.93382)"><tspan
           id="tspan926-6"
           x="30.679483"
           y="90.074318"
           style="font-style:normal;font-variant:normal;font-weight:normal;font-stretch:normal;font-family:Kinnari;-inkscape-font-specification:Kinnari;fill:#800000;stroke-width:0.264583" /></text>
      <text
         xml:space="preserve"
         id="text904"
         style="line-height:1.25;font-family:'Nexa Bold';font-size:10.58333333px;-inkscape-font-specification:'Nexa Bold, ';white-space:pre;shape-inside:url(#rect906);font-weight:normal;font-style:normal;font-stretch:normal;font-variant:normal;" />
      <text
         xml:space="preserve"
         id="text910"
         style="font-size:10.5833px;line-height:1.25;font-family:'04b_21';-inkscape-font-specification:'04b_21';white-space:pre;shape-inside:url(#rect912);fill:#800000;fill-opacity:1;"
         transform="matrix(1.2458295,0,0,1.2458295,-87.802672,18.137482)"><tspan
           x="374.68945"
           y="41.772106"><tspan
             style="font-style:normal;font-variant:normal;font-weight:normal;font-stretch:normal;font-family:'Nexa Bold';-inkscape-font-specification:'Nexa Bold, ';fill:#800000;fill-opacity:1">SOFTWARE LINUX 
</tspan></tspan><tspan
           x="374.68945"
           y="55.001232"><tspan
             style="font-style:normal;font-variant:normal;font-weight:normal;font-stretch:normal;font-family:'Nexa Bold';-inkscape-font-specification:'Nexa Bold, ';fill:#800000;fill-opacity:1">per sincronizzazione bidirezionale 
</tspan></tspan><tspan
           x="374.68945"
           y="68.230358"><tspan
             style="font-style:normal;font-variant:normal;font-weight:normal;font-stretch:normal;font-family:'Nexa Bold';-inkscape-font-specification:'Nexa Bold, ';fill:#800000;fill-opacity:1">basato su </tspan><tspan
             style="font-style:normal;font-variant:normal;font-weight:bold;font-stretch:normal;font-family:'Nexa Bold';-inkscape-font-specification:'Nexa Bold,  Bold'">rclone</tspan></tspan></text>
    </g>
    <path
       style="fill:#000000;stroke-width:0.264583"
       id="path975"
       d="" />
    <path
       id="path833-0"
       style="fill:#800000;fill-opacity:1;stroke:none;stroke-width:0.394785;stroke-linecap:round;stroke-linejoin:bevel;stroke-dasharray:0.394785, 0.394785;stroke-opacity:0.436997;paint-order:markers fill stroke"
       d="m 341.07001,86.142027 -2.54197,5.785694 c -1.26364,2.876264 -2.26932,5.184635 -2.45566,5.632731 l -0.15038,0.343132 -0.009,-0.0041 c -0.15274,0.34567 -0.32344,0.682641 -0.50385,1.01441 l 2.77451,1.601976 c 0.247,-0.4485 0.47718,-0.906233 0.68264,-1.375633 0.0124,-0.0281 0.0229,-0.05713 0.0351,-0.08527 1.4488,0.645067 2.72985,1.218173 2.80758,1.256253 0.14169,0.0695 0.14866,0.0688 0.18552,-0.0155 0.0613,-0.14001 0.11301,-0.576284 0.13229,-1.121897 0.0688,-1.945831 -0.19798,-5.837523 -0.77618,-11.320756 z m -5.68803,18.027843 v 0.12195 c 0.0254,-0.0261 0.0518,-0.0512 0.077,-0.0775 z" />
    <rect
       fill="#2176ff"
       x="218.22894"
       y="161.08086"
       width="26.458332"
       height="58.208332"
       id="rect2"
       style="stroke-width:0.264583" />
    <rect
       fill="#413c58"
       x="244.68727"
       y="161.08086"
       width="26.458332"
       height="58.208332"
       id="rect4"
       style="stroke-width:0.264583" />
    <rect
       fill="#800000"
       x="271.1456"
       y="161.08086"
       width="26.458332"
       height="58.208332"
       id="rect6"
       style="stroke-width:0.264583" />
    <rect
       fill="#f7b538"
       x="297.60394"
       y="161.08086"
       width="26.458332"
       height="58.208332"
       id="rect8"
       style="stroke-width:0.264583;fill:#fce762;fill-opacity:1" />
    <rect
       fill="#483d03"
       x="324.06229"
       y="161.08086"
       width="26.458332"
       height="58.208332"
       id="rect10"
       style="stroke-width:0.264583" />
    <text
       x="220.87477"
       y="223.25795"
       font-family="Arial"
       font-size="1.5875px"
       alignment-baseline="middle"
       id="text12"
       style="stroke-width:0.264583">Exported from Coolors.co</text>
    <text
       x="347.87479"
       y="223.25795"
       font-family="Arial"
       font-size="1.5875px"
       alignment-baseline="middle"
       text-anchor="end"
       id="text14"
       style="stroke-width:0.264583">https://coolors.co/2176ff-413c58-800000-f7b538-483d03</text>
  </g>
</svg>
